<svg xmlns="http://www.w3.org/2000/svg" baseProfile="full" version="1.1" viewBox="0 0 804 762" width="48em" height="45.4em">
<g font-family="monospace" font-size="16">
<rect width="804" height="764"></rect><rect width="10" height="20" x="2" y="2"></rect><g fill="#fff" font-weight="bold"><text x="2" y="17">$</text> </g><rect width="740" height="20" x="12" y="2"></rect><g fill="#eee"><text x="22" y="17">m</text><text x="32" y="17">w</text><text x="42" y="17">i</text><text x="52" y="17">c</text> <text x="72" y="17">-</text><text x="82" y="17">-</text><text x="92" y="17">b</text><text x="102" y="17">l</text><text x="112" y="17">a</text><text x="122" y="17">c</text><text x="132" y="17">k</text><text x="142" y="17">l</text><text x="152" y="17">i</text><text x="162" y="17">s</text><text x="172" y="17">t</text> <text x="192" y="17">/</text><text x="202" y="17">u</text><text x="212" y="17">s</text><text x="222" y="17">r</text><text x="232" y="17">/</text><text x="242" y="17">s</text><text x="252" y="17">h</text><text x="262" y="17">a</text><text x="272" y="17">r</text><text x="282" y="17">e</text><text x="292" y="17">/</text><text x="302" y="17">l</text><text x="312" y="17">i</text><text x="322" y="17">n</text><text x="332" y="17">t</text><text x="342" y="17">i</text><text x="352" y="17">a</text><text x="362" y="17">n</text><text x="372" y="17">/</text><text x="382" y="17">d</text><text x="392" y="17">a</text><text x="402" y="17">t</text><text x="412" y="17">a</text><text x="422" y="17">/</text><text x="432" y="17">s</text><text x="442" y="17">p</text><text x="452" y="17">e</text><text x="462" y="17">l</text><text x="472" y="17">l</text><text x="482" y="17">i</text><text x="492" y="17">n</text><text x="502" y="17">g</text><text x="512" y="17">/</text><text x="522" y="17">c</text><text x="532" y="17">o</text><text x="542" y="17">r</text><text x="552" y="17">r</text><text x="562" y="17">e</text><text x="572" y="17">c</text><text x="582" y="17">t</text><text x="592" y="17">i</text><text x="602" y="17">o</text><text x="612" y="17">n</text><text x="622" y="17">s</text> <text x="642" y="17">r</text><text x="652" y="17">f</text><text x="662" y="17">c</text><text x="672" y="17">1</text><text x="682" y="17">9</text><text x="692" y="17">2</text><text x="702" y="17">7</text><text x="712" y="17">.</text><text x="722" y="17">t</text><text x="732" y="17">x</text><text x="742" y="17">t</text></g>
<rect width="50" height="20" x="752" y="2"></rect><rect width="130" height="20" x="2" y="22"></rect><g fill="#eee"><text x="2" y="37">h</text><text x="12" y="37">e</text><text x="22" y="37">i</text><text x="32" y="37">r</text><text x="42" y="37">a</text><text x="52" y="37">r</text><text x="62" y="37">c</text><text x="72" y="37">h</text><text x="82" y="37">i</text><text x="92" y="37">c</text><text x="102" y="37">a</text><text x="112" y="37">l</text><text x="122" y="37">:</text></g>
<rect width="670" height="20" x="132" y="22"></rect><rect width="10" height="20" x="2" y="42"></rect><g fill="#444" font-weight="bold"><text x="2" y="57">|</text> </g><rect width="310" height="20" x="12" y="42"></rect><g fill="#eee"><text x="22" y="57">…</text><text x="32" y="57">g</text> <text x="52" y="57">p</text><text x="62" y="57">a</text><text x="72" y="57">p</text><text x="82" y="57">e</text><text x="92" y="57">r</text> <text x="112" y="57">c</text><text x="122" y="57">l</text><text x="132" y="57">i</text><text x="142" y="57">p</text><text x="152" y="57">s</text> <text x="172" y="57">v</text><text x="182" y="57">s</text> <text x="202" y="57">s</text><text x="212" y="57">m</text><text x="222" y="57">a</text><text x="232" y="57">l</text><text x="242" y="57">l</text> <text x="262" y="57">o</text><text x="272" y="57">n</text><text x="282" y="57">e</text><text x="292" y="57">s</text><text x="302" y="57">;</text> </g><rect fill="#c00" width="120" height="20" x="322" y="42"></rect><g><text x="322" y="57">h</text><text x="332" y="57">e</text><text x="342" y="57">i</text><text x="352" y="57">r</text><text x="362" y="57">a</text><text x="372" y="57">r</text><text x="382" y="57">c</text><text x="392" y="57">h</text><text x="402" y="57">i</text><text x="412" y="57">c</text><text x="422" y="57">a</text><text x="432" y="57">l</text> </g><rect width="90" height="20" x="442" y="42"></rect><g fill="#eee"><text x="452" y="57">a</text><text x="462" y="57">s</text><text x="472" y="57">s</text><text x="482" y="57">e</text><text x="492" y="57">m</text><text x="502" y="57">b</text><text x="512" y="57">l</text><text x="522" y="57">y</text></g>
<rect width="270" height="20" x="532" y="42"></rect><rect width="800" height="20" x="2" y="62"></rect><rect width="80" height="20" x="2" y="82"></rect><g fill="#eee"><text x="2" y="97">r</text><text x="12" y="97">e</text><text x="22" y="97">y</text><text x="32" y="97">c</text><text x="42" y="97">l</text><text x="52" y="97">e</text><text x="62" y="97">d</text><text x="72" y="97">:</text></g>
<rect width="720" height="20" x="82" y="82"></rect><rect width="10" height="20" x="2" y="102"></rect><g fill="#444" font-weight="bold"><text x="2" y="117">|</text> </g><rect width="210" height="20" x="12" y="102"></rect><g fill="#eee"><text x="22" y="117">1</text><text x="32" y="117">)</text> <text x="52" y="117">s</text><text x="62" y="117">t</text><text x="72" y="117">a</text><text x="82" y="117">p</text><text x="92" y="117">l</text><text x="102" y="117">e</text><text x="112" y="117">s</text> <text x="132" y="117">c</text><text x="142" y="117">o</text><text x="152" y="117">u</text><text x="162" y="117">l</text><text x="172" y="117">d</text> <text x="192" y="117">b</text><text x="202" y="117">e</text> </g><rect fill="#c80" width="70" height="20" x="222" y="102"></rect><g><text x="222" y="117">r</text><text x="232" y="117">e</text><text x="242" y="117">y</text><text x="252" y="117">c</text><text x="262" y="117">l</text><text x="272" y="117">e</text><text x="282" y="117">d</text> </g><rect width="190" height="20" x="292" y="102"></rect><g fill="#eee"><text x="302" y="117">f</text><text x="312" y="117">o</text><text x="322" y="117">r</text> <text x="342" y="117">a</text> <text x="362" y="117">s</text><text x="372" y="117">m</text><text x="382" y="117">a</text><text x="392" y="117">l</text><text x="402" y="117">l</text> <text x="422" y="117">c</text><text x="432" y="117">r</text><text x="442" y="117">e</text><text x="452" y="117">d</text><text x="462" y="117">i</text><text x="472" y="117">t</text></g>
<rect width="320" height="20" x="482" y="102"></rect><rect width="800" height="20" x="2" y="122"></rect><rect width="70" height="20" x="2" y="142"></rect><g fill="#eee"><text x="2" y="157">f</text><text x="12" y="157">l</text><text x="22" y="157">i</text><text x="32" y="157">n</text><text x="42" y="157">e</text><text x="52" y="157">s</text><text x="62" y="157">:</text></g>
<rect width="730" height="20" x="72" y="142"></rect><rect width="10" height="20" x="2" y="162"></rect><g fill="#444" font-weight="bold"><text x="2" y="177">|</text> </g><rect width="310" height="20" x="12" y="162"></rect><g fill="#eee"><text x="22" y="177">…</text><text x="32" y="177">y</text> <text x="52" y="177">s</text><text x="62" y="177">h</text><text x="72" y="177">o</text><text x="82" y="177">u</text><text x="92" y="177">l</text><text x="102" y="177">d</text> <text x="122" y="177">n</text><text x="132" y="177">o</text><text x="142" y="177">t</text> <text x="162" y="177">b</text><text x="172" y="177">e</text> <text x="192" y="177">u</text><text x="202" y="177">s</text><text x="212" y="177">e</text><text x="222" y="177">d</text> <text x="242" y="177">o</text><text x="252" y="177">n</text> <text x="272" y="177">d</text><text x="282" y="177">a</text><text x="292" y="177">t</text><text x="302" y="177">a</text> </g><rect fill="#c80" width="60" height="20" x="322" y="162"></rect><g><text x="322" y="177">f</text><text x="332" y="177">l</text><text x="342" y="177">i</text><text x="352" y="177">n</text><text x="362" y="177">e</text><text x="372" y="177">s</text> </g><rect width="220" height="20" x="382" y="162"></rect><g fill="#eee"><text x="392" y="177">w</text><text x="402" y="177">h</text><text x="412" y="177">i</text><text x="422" y="177">c</text><text x="432" y="177">h</text> <text x="452" y="177">m</text><text x="462" y="177">i</text><text x="472" y="177">g</text><text x="482" y="177">h</text><text x="492" y="177">t</text> <text x="512" y="177">e</text><text x="522" y="177">n</text><text x="532" y="177">d</text> <text x="552" y="177">u</text><text x="562" y="177">p</text> <text x="582" y="177">i</text><text x="592" y="177">n</text></g>
<rect width="200" height="20" x="602" y="162"></rect><rect width="800" height="20" x="2" y="182"></rect><rect width="90" height="20" x="2" y="202"></rect><g fill="#eee"><text x="2" y="217">r</text><text x="12" y="217">e</text><text x="22" y="217">c</text><text x="32" y="217">y</text><text x="42" y="217">c</text><text x="52" y="217">l</text><text x="62" y="217">e</text><text x="72" y="217">r</text><text x="82" y="217">:</text></g>
<rect width="710" height="20" x="92" y="202"></rect><rect width="10" height="20" x="2" y="222"></rect><g fill="#444" font-weight="bold"><text x="2" y="237">|</text> </g><rect width="310" height="20" x="12" y="222"></rect><g fill="#eee"><text x="22" y="237">…</text><text x="32" y="237">i</text><text x="42" y="237">l</text><text x="52" y="237">e</text> <text x="72" y="237">o</text><text x="82" y="237">r</text> <text x="102" y="237">f</text><text x="112" y="237">o</text><text x="122" y="237">l</text><text x="132" y="237">d</text><text x="142" y="237">e</text><text x="152" y="237">r</text> <text x="172" y="237">i</text><text x="182" y="237">s</text> <text x="202" y="237">d</text><text x="212" y="237">e</text><text x="222" y="237">l</text><text x="232" y="237">e</text><text x="242" y="237">t</text><text x="252" y="237">e</text><text x="262" y="237">d</text><text x="272" y="237">,</text> <text x="292" y="237">a</text> <text x="312" y="237">"</text></g><rect fill="#c80" width="80" height="20" x="322" y="222"></rect><g><text x="322" y="237">r</text><text x="332" y="237">e</text><text x="342" y="237">c</text><text x="352" y="237">y</text><text x="362" y="237">c</text><text x="372" y="237">l</text><text x="382" y="237">e</text><text x="392" y="237">r</text></g><rect width="150" height="20" x="402" y="222"></rect><g fill="#eee"><text x="402" y="237">"</text> <text x="422" y="237">p</text><text x="432" y="237">r</text><text x="442" y="237">o</text><text x="452" y="237">g</text><text x="462" y="237">r</text><text x="472" y="237">a</text><text x="482" y="237">m</text> <text x="502" y="237">c</text><text x="512" y="237">o</text><text x="522" y="237">u</text><text x="532" y="237">l</text><text x="542" y="237">d</text></g>
<rect width="250" height="20" x="552" y="222"></rect><rect width="800" height="20" x="2" y="242"></rect><rect width="40" height="20" x="2" y="262"></rect><g fill="#eee"><text x="2" y="277">s</text><text x="12" y="277">r</text><text x="22" y="277">c</text><text x="32" y="277">:</text></g>
<rect width="760" height="20" x="42" y="262"></rect><rect width="10" height="20" x="2" y="282"></rect><g fill="#444" font-weight="bold"><text x="2" y="297">|</text> </g><rect width="50" height="20" x="12" y="282"></rect><g fill="#eee"><text x="22" y="297">3</text><text x="32" y="297">)</text> <text x="52" y="297">"</text></g><rect fill="#c80" width="30" height="20" x="62" y="282"></rect><g><text x="62" y="297">s</text><text x="72" y="297">r</text><text x="82" y="297">c</text></g><rect width="300" height="20" x="92" y="282"></rect><g fill="#eee"><text x="92" y="297">=</text><text x="102" y="297">"</text> <text x="122" y="297">w</text><text x="132" y="297">o</text><text x="142" y="297">u</text><text x="152" y="297">l</text><text x="162" y="297">d</text> <text x="182" y="297">a</text><text x="192" y="297">l</text><text x="202" y="297">l</text><text x="212" y="297">o</text><text x="222" y="297">w</text> <text x="242" y="297">t</text><text x="252" y="297">h</text><text x="262" y="297">e</text> <text x="282" y="297">s</text><text x="292" y="297">p</text><text x="302" y="297">e</text><text x="312" y="297">c</text><text x="322" y="297">i</text><text x="332" y="297">f</text><text x="342" y="297">i</text><text x="352" y="297">c</text><text x="362" y="297">a</text><text x="372" y="297">t</text><text x="382" y="297">…</text></g>
<rect width="410" height="20" x="392" y="282"></rect><rect width="800" height="20" x="2" y="302"></rect><rect width="40" height="20" x="2" y="322"></rect><g fill="#eee"><text x="2" y="337">I</text><text x="12" y="337">S</text><text x="22" y="337">I</text><text x="32" y="337">:</text></g>
<rect width="760" height="20" x="42" y="322"></rect><rect width="10" height="20" x="2" y="342"></rect><g fill="#444" font-weight="bold"><text x="2" y="357">|</text> </g><rect width="310" height="20" x="12" y="342"></rect><g fill="#eee"><text x="22" y="357">…</text> </g><rect fill="#c80" width="30" height="20" x="322" y="342"></rect><g><text x="322" y="357">I</text><text x="332" y="357">S</text><text x="342" y="357">I</text></g>
<rect width="450" height="20" x="352" y="342"></rect><rect width="800" height="20" x="2" y="362"></rect><rect width="40" height="20" x="2" y="382"></rect><g fill="#eee"><text x="2" y="397">U</text><text x="12" y="397">S</text><text x="22" y="397">C</text><text x="32" y="397">:</text></g>
<rect width="760" height="20" x="42" y="382"></rect><rect width="10" height="20" x="2" y="402"></rect><g fill="#444" font-weight="bold"><text x="2" y="417">|</text> </g><rect width="10" height="20" x="12" y="402"></rect><rect fill="#c80" width="30" height="20" x="22" y="402"></rect><g><text x="22" y="417">U</text><text x="32" y="417">S</text><text x="42" y="417">C</text></g><rect width="300" height="20" x="52" y="402"></rect><g fill="#eee"><text x="52" y="417">/</text><text x="62" y="417">I</text><text x="72" y="417">n</text><text x="82" y="417">f</text><text x="92" y="417">o</text><text x="102" y="417">r</text><text x="112" y="417">m</text><text x="122" y="417">a</text><text x="132" y="417">t</text><text x="142" y="417">i</text><text x="152" y="417">o</text><text x="162" y="417">n</text> <text x="182" y="417">S</text><text x="192" y="417">c</text><text x="202" y="417">i</text><text x="212" y="417">e</text><text x="222" y="417">n</text><text x="232" y="417">c</text><text x="242" y="417">e</text><text x="252" y="417">s</text> <text x="272" y="417">I</text><text x="282" y="417">n</text><text x="292" y="417">s</text><text x="302" y="417">t</text><text x="312" y="417">i</text><text x="322" y="417">t</text><text x="332" y="417">u</text><text x="342" y="417">…</text></g>
<rect width="450" height="20" x="352" y="402"></rect><rect width="800" height="20" x="2" y="422"></rect><rect width="60" height="20" x="2" y="442"></rect><g fill="#eee"><text x="2" y="457">b</text><text x="12" y="457">e</text><text x="22" y="457">n</text><text x="32" y="457">t</text><text x="42" y="457">o</text><text x="52" y="457">:</text></g>
<rect width="740" height="20" x="62" y="442"></rect><rect width="10" height="20" x="2" y="462"></rect><g fill="#444" font-weight="bold"><text x="2" y="477">|</text> </g><rect width="310" height="20" x="12" y="462"></rect><g fill="#eee"><text x="22" y="477">…</text><text x="32" y="477">f</text> <text x="52" y="477">5</text><text x="62" y="477">0</text><text x="72" y="477">0</text><text x="82" y="477">0</text><text x="92" y="477">.</text> <text x="122" y="477">R</text><text x="132" y="477">e</text><text x="142" y="477">f</text><text x="152" y="477">e</text><text x="162" y="477">r</text><text x="172" y="477">e</text><text x="182" y="477">n</text><text x="192" y="477">c</text><text x="202" y="477">e</text><text x="212" y="477">:</text> <text x="232" y="477">A</text><text x="242" y="477">p</text><text x="252" y="477">p</text><text x="262" y="477">l</text><text x="272" y="477">e</text><text x="282" y="477">'</text><text x="292" y="477">s</text> <text x="312" y="477">"</text></g><rect fill="#c80" width="50" height="20" x="322" y="462"></rect><g><text x="322" y="477">b</text><text x="332" y="477">e</text><text x="342" y="477">n</text><text x="352" y="477">t</text><text x="362" y="477">o</text></g><rect width="10" height="20" x="372" y="462"></rect><g fill="#eee"><text x="372" y="477">"</text></g>
<rect width="420" height="20" x="382" y="462"></rect><rect width="800" height="20" x="2" y="482"></rect><rect width="100" height="20" x="2" y="502"></rect><g fill="#eee"><text x="2" y="517">m</text><text x="12" y="517">u</text><text x="22" y="517">l</text><text x="32" y="517">t</text><text x="42" y="517">i</text><text x="52" y="517">p</text><text x="62" y="517">a</text><text x="72" y="517">g</text><text x="82" y="517">e</text><text x="92" y="517">:</text></g>
<rect width="700" height="20" x="102" y="502"></rect><rect width="10" height="20" x="2" y="522"></rect><g fill="#444" font-weight="bold"><text x="2" y="537">|</text> </g><rect width="310" height="20" x="12" y="522"></rect><g fill="#eee"><text x="22" y="537">…</text><text x="32" y="537">r</text> <text x="52" y="537">c</text><text x="62" y="537">l</text><text x="72" y="537">i</text><text x="82" y="537">p</text> <text x="102" y="537">t</text><text x="112" y="537">o</text> <text x="132" y="537">a</text> <text x="152" y="537">s</text><text x="162" y="537">i</text><text x="172" y="537">n</text><text x="182" y="537">g</text><text x="192" y="537">l</text><text x="202" y="537">e</text> <text x="222" y="537">p</text><text x="232" y="537">a</text><text x="242" y="537">g</text><text x="252" y="537">e</text> <text x="272" y="537">o</text><text x="282" y="537">f</text> <text x="302" y="537">a</text> </g><rect fill="#c80" width="90" height="20" x="322" y="522"></rect><g><text x="322" y="537">m</text><text x="332" y="537">u</text><text x="342" y="537">l</text><text x="352" y="537">t</text><text x="362" y="537">i</text><text x="372" y="537">p</text><text x="382" y="537">a</text><text x="392" y="537">g</text><text x="402" y="537">e</text> </g><rect width="120" height="20" x="412" y="522"></rect><g fill="#eee"><text x="422" y="537">d</text><text x="432" y="537">o</text><text x="442" y="537">c</text><text x="452" y="537">u</text><text x="462" y="537">m</text><text x="472" y="537">e</text><text x="482" y="537">n</text><text x="492" y="537">t</text> <text x="512" y="537">o</text><text x="522" y="537">r</text></g>
<rect width="270" height="20" x="532" y="522"></rect><rect width="800" height="20" x="2" y="542"></rect><rect width="90" height="20" x="2" y="562"></rect><g fill="#eee"><text x="2" y="577">R</text><text x="12" y="577">e</text><text x="22" y="577">y</text><text x="32" y="577">,</text> <text x="52" y="577">d</text><text x="62" y="577">e</text><text x="72" y="577">l</text><text x="82" y="577">:</text></g>
<rect width="710" height="20" x="92" y="562"></rect><rect width="10" height="20" x="2" y="582"></rect><g fill="#444" font-weight="bold"><text x="2" y="597">|</text> </g><rect width="80" height="20" x="12" y="582"></rect><g fill="#eee"><text x="22" y="597">M</text><text x="32" y="597">a</text><text x="42" y="597">r</text><text x="52" y="597">i</text><text x="62" y="597">n</text><text x="72" y="597">a</text> </g><rect fill="#c80" width="30" height="20" x="92" y="582"></rect><g><text x="92" y="597">d</text><text x="102" y="597">e</text><text x="112" y="597">l</text> </g><rect width="10" height="20" x="122" y="582"></rect><rect fill="#c80" width="30" height="20" x="132" y="582"></rect><g><text x="132" y="597">R</text><text x="142" y="597">e</text><text x="152" y="597">y</text></g><rect width="100" height="20" x="162" y="582"></rect><g fill="#eee"><text x="162" y="597">,</text> <text x="182" y="597">C</text><text x="192" y="597">A</text> <text x="212" y="597">9</text><text x="222" y="597">0</text><text x="232" y="597">2</text><text x="242" y="597">9</text><text x="252" y="597">2</text></g>
<rect width="540" height="20" x="262" y="582"></rect><rect width="800" height="20" x="2" y="602"></rect><rect width="160" height="20" x="2" y="622"></rect><g fill="#eee"><text x="2" y="637">E</text><text x="12" y="637">M</text><text x="22" y="637">a</text><text x="32" y="637">i</text><text x="42" y="637">l</text><text x="52" y="637">,</text> <text x="72" y="637">e</text><text x="82" y="637">d</text><text x="92" y="637">u</text><text x="102" y="637">,</text> <text x="122" y="637">i</text><text x="132" y="637">s</text><text x="142" y="637">i</text><text x="152" y="637">:</text></g>
<rect width="640" height="20" x="162" y="622"></rect><rect width="10" height="20" x="2" y="642"></rect><g fill="#444" font-weight="bold"><text x="2" y="657">|</text> </g><rect width="10" height="20" x="12" y="642"></rect><rect fill="#c80" width="50" height="20" x="22" y="642"></rect><g><text x="22" y="657">E</text><text x="32" y="657">M</text><text x="42" y="657">a</text><text x="52" y="657">i</text><text x="62" y="657">l</text></g><rect width="90" height="20" x="72" y="642"></rect><g fill="#eee"><text x="72" y="657">:</text> <text x="92" y="657">r</text><text x="102" y="657">o</text><text x="112" y="657">g</text><text x="122" y="657">e</text><text x="132" y="657">r</text><text x="142" y="657">s</text><text x="152" y="657">@</text></g><rect fill="#c80" width="30" height="20" x="162" y="642"></rect><g><text x="162" y="657">i</text><text x="172" y="657">s</text><text x="182" y="657">i</text></g><rect width="10" height="20" x="192" y="642"></rect><g fill="#eee"><text x="192" y="657">.</text></g><rect fill="#c80" width="30" height="20" x="202" y="642"></rect><g><text x="202" y="657">e</text><text x="212" y="657">d</text><text x="222" y="657">u</text></g>
<rect width="570" height="20" x="232" y="642"></rect><rect width="800" height="20" x="2" y="662"></rect><rect width="100" height="20" x="2" y="682"></rect><g fill="#eee"><text x="2" y="697">e</text><text x="12" y="697">l</text><text x="22" y="697">e</text><text x="32" y="697">c</text><text x="42" y="697">t</text><text x="52" y="697">o</text><text x="62" y="697">n</text><text x="72" y="697">i</text><text x="82" y="697">c</text><text x="92" y="697">:</text></g>
<rect width="700" height="20" x="102" y="682"></rect><rect width="10" height="20" x="2" y="702"></rect><g fill="#444" font-weight="bold"><text x="2" y="717">|</text> </g><rect width="150" height="20" x="12" y="702"></rect><g fill="#eee"><text x="22" y="717">d</text><text x="32" y="717">r</text><text x="42" y="717">a</text><text x="52" y="717">w</text><text x="62" y="717">e</text><text x="72" y="717">r</text> <text x="92" y="717">o</text><text x="102" y="717">f</text> <text x="122" y="717">t</text><text x="132" y="717">h</text><text x="142" y="717">e</text> </g><rect fill="#c80" width="90" height="20" x="162" y="702"></rect><g><text x="162" y="717">e</text><text x="172" y="717">l</text><text x="182" y="717">e</text><text x="192" y="717">c</text><text x="202" y="717">t</text><text x="212" y="717">o</text><text x="222" y="717">n</text><text x="232" y="717">i</text><text x="242" y="717">c</text> </g><rect width="170" height="20" x="252" y="702"></rect><g fill="#eee"><text x="262" y="717">d</text><text x="272" y="717">e</text><text x="282" y="717">s</text><text x="292" y="717">k</text> <text x="312" y="717">o</text><text x="322" y="717">n</text> <text x="342" y="717">h</text><text x="352" y="717">o</text><text x="362" y="717">m</text><text x="372" y="717">e</text> <text x="392" y="717">P</text><text x="402" y="717">C</text><text x="412" y="717">s</text></g>
<rect width="380" height="20" x="422" y="702"></rect><rect width="10" height="20" x="2" y="722"></rect><g fill="#444" font-weight="bold"><text x="2" y="737">|</text> </g><rect width="150" height="20" x="12" y="722"></rect><g fill="#eee"><text x="132" y="737">3</text><text x="142" y="737">)</text> </g><rect fill="#c80" width="90" height="20" x="162" y="722"></rect><g><text x="162" y="737">e</text><text x="172" y="737">l</text><text x="182" y="737">e</text><text x="192" y="737">c</text><text x="202" y="737">t</text><text x="212" y="737">o</text><text x="222" y="737">n</text><text x="232" y="737">i</text><text x="242" y="737">c</text> </g><rect width="300" height="20" x="252" y="722"></rect><g fill="#eee"><text x="262" y="737">s</text><text x="272" y="737">t</text><text x="282" y="737">a</text><text x="292" y="737">p</text><text x="302" y="737">l</text><text x="312" y="737">e</text><text x="322" y="737">s</text> <text x="342" y="737">s</text><text x="352" y="737">h</text><text x="362" y="737">o</text><text x="372" y="737">u</text><text x="382" y="737">l</text><text x="392" y="737">d</text> <text x="412" y="737">h</text><text x="422" y="737">a</text><text x="432" y="737">v</text><text x="442" y="737">e</text> <text x="462" y="737">a</text> <text x="482" y="737">s</text><text x="492" y="737">t</text><text x="502" y="737">a</text><text x="512" y="737">n</text><text x="522" y="737">d</text><text x="532" y="737">a</text><text x="542" y="737">…</text></g>
</g>
</svg>
